<svg
  xmlns="http://www.w3.org/2000/svg"
  viewBox="0 0 54 33"
  fill="none"
>
  <path
    fill="#38BDF8"
    d="M27 0C19.8 0 15.3 3.6 13.5 10.8
       16.2 7.2 19.35 5.85 22.95 6.75
       25.005 7.263 26.475 8.757 28.095 10.539
       30.735 13.395 33.78 16.65 40.5 16.65
       47.7 16.65 52.2 13.05 54 5.85
       51.3 9.45 48.15 10.8 44.55 9.9
       42.495 9.387 41.025 7.893 39.405 6.111
       36.765 3.255 33.72 0 27 0ZM13.5 16.65
       C6.3 16.65 1.8 20.25 0 27.45
       2.7 23.85 5.85 22.5 9.45 23.4
       11.505 23.913 12.975 25.407 14.595 27.189
       17.235 30.045 20.28 33.3 27 33.3
       34.2 33.3 38.7 29.7 40.5 22.5
       37.8 26.1 34.65 27.45 31.05 26.55
       28.995 26.037 27.525 24.543 25.905 22.761
       23.265 19.905 20.22 16.65 13.5 16.65Z"
  />
</svg>
